<mxfile host="app.diagrams.net" modified="2023-10-15T05:34:48.117Z" agent="Mozilla/5.0 (Windows NT 10.0; Win64; x64) AppleWebKit/537.36 (KHTML, like Gecko) Chrome/118.0.0.0 Safari/537.36" etag="OM9YyF5-viSBnPydz_5H" version="22.0.4" type="github">
  <diagram id="C5RBs43oDa-KdzZeNtuy" name="Page-1">
    <mxGraphModel dx="993" dy="610" grid="1" gridSize="10" guides="1" tooltips="1" connect="1" arrows="1" fold="1" page="1" pageScale="1" pageWidth="827" pageHeight="1169" math="0" shadow="0">
      <root>
        <mxCell id="WIyWlLk6GJQsqaUBKTNV-0" />
        <mxCell id="WIyWlLk6GJQsqaUBKTNV-1" parent="WIyWlLk6GJQsqaUBKTNV-0" />
        <mxCell id="WIyWlLk6GJQsqaUBKTNV-2" value="" style="rounded=0;html=1;jettySize=auto;orthogonalLoop=1;fontSize=11;endArrow=block;endFill=0;endSize=8;strokeWidth=1;shadow=0;labelBackgroundColor=none;edgeStyle=orthogonalEdgeStyle;" parent="WIyWlLk6GJQsqaUBKTNV-1" source="WIyWlLk6GJQsqaUBKTNV-3" target="WIyWlLk6GJQsqaUBKTNV-6" edge="1">
          <mxGeometry relative="1" as="geometry" />
        </mxCell>
        <mxCell id="WIyWlLk6GJQsqaUBKTNV-3" value="開始" style="rounded=1;whiteSpace=wrap;html=1;fontSize=12;glass=0;strokeWidth=1;shadow=0;" parent="WIyWlLk6GJQsqaUBKTNV-1" vertex="1">
          <mxGeometry x="160" y="80" width="120" height="40" as="geometry" />
        </mxCell>
        <mxCell id="WIyWlLk6GJQsqaUBKTNV-4" value="Yes" style="rounded=0;html=1;jettySize=auto;orthogonalLoop=1;fontSize=11;endArrow=block;endFill=0;endSize=8;strokeWidth=1;shadow=0;labelBackgroundColor=none;edgeStyle=orthogonalEdgeStyle;entryX=0.5;entryY=0;entryDx=0;entryDy=0;" parent="WIyWlLk6GJQsqaUBKTNV-1" edge="1" target="mHrnO-NyLw_LbCR-K3jb-0">
          <mxGeometry y="20" relative="1" as="geometry">
            <mxPoint as="offset" />
            <mxPoint x="220" y="251" as="sourcePoint" />
            <mxPoint x="220" y="360" as="targetPoint" />
          </mxGeometry>
        </mxCell>
        <mxCell id="WIyWlLk6GJQsqaUBKTNV-5" value="No" style="edgeStyle=orthogonalEdgeStyle;rounded=0;html=1;jettySize=auto;orthogonalLoop=1;fontSize=11;endArrow=block;endFill=0;endSize=8;strokeWidth=1;shadow=0;labelBackgroundColor=none;" parent="WIyWlLk6GJQsqaUBKTNV-1" source="WIyWlLk6GJQsqaUBKTNV-6" target="WIyWlLk6GJQsqaUBKTNV-7" edge="1">
          <mxGeometry y="10" relative="1" as="geometry">
            <mxPoint as="offset" />
          </mxGeometry>
        </mxCell>
        <mxCell id="XzkZrGU55AZtiZEeNPH7-4" style="edgeStyle=orthogonalEdgeStyle;rounded=0;orthogonalLoop=1;jettySize=auto;html=1;exitX=1;exitY=0.5;exitDx=0;exitDy=0;" parent="WIyWlLk6GJQsqaUBKTNV-1" source="WIyWlLk6GJQsqaUBKTNV-6" edge="1">
          <mxGeometry relative="1" as="geometry">
            <mxPoint x="280" y="220" as="targetPoint" />
          </mxGeometry>
        </mxCell>
        <mxCell id="WIyWlLk6GJQsqaUBKTNV-6" value="KEY_MUTEは&lt;br&gt;押されているか" style="rhombus;whiteSpace=wrap;html=1;shadow=0;fontFamily=Helvetica;fontSize=12;align=center;strokeWidth=1;spacing=6;spacingTop=-4;" parent="WIyWlLk6GJQsqaUBKTNV-1" vertex="1">
          <mxGeometry x="140" y="170" width="160" height="80" as="geometry" />
        </mxCell>
        <mxCell id="XzkZrGU55AZtiZEeNPH7-3" value="" style="edgeStyle=orthogonalEdgeStyle;rounded=0;orthogonalLoop=1;jettySize=auto;html=1;" parent="WIyWlLk6GJQsqaUBKTNV-1" source="WIyWlLk6GJQsqaUBKTNV-7" target="XzkZrGU55AZtiZEeNPH7-2" edge="1">
          <mxGeometry relative="1" as="geometry" />
        </mxCell>
        <mxCell id="WIyWlLk6GJQsqaUBKTNV-7" value="reboot_modeを表示&lt;br&gt;uVar13 = dprintf((byte *)s_reboot_mode_:_%x_8f663d44,reboot_mode,pcVar8,puVar11);" style="rounded=1;whiteSpace=wrap;html=1;fontSize=12;glass=0;strokeWidth=1;shadow=0;" parent="WIyWlLk6GJQsqaUBKTNV-1" vertex="1">
          <mxGeometry x="580" y="180" width="530" height="60" as="geometry" />
        </mxCell>
        <mxCell id="XzkZrGU55AZtiZEeNPH7-2" value="uVar5 = (undefined4)((ulonglong)uVar13 &amp;gt;&amp;gt; 0x20);" style="rounded=1;whiteSpace=wrap;html=1;fontSize=12;glass=0;strokeWidth=1;shadow=0;" parent="WIyWlLk6GJQsqaUBKTNV-1" vertex="1">
          <mxGeometry x="1200" y="190" width="320" height="40" as="geometry" />
        </mxCell>
        <mxCell id="mHrnO-NyLw_LbCR-K3jb-9" value="" style="edgeStyle=orthogonalEdgeStyle;rounded=0;orthogonalLoop=1;jettySize=auto;html=1;" edge="1" parent="WIyWlLk6GJQsqaUBKTNV-1" source="mHrnO-NyLw_LbCR-K3jb-0" target="mHrnO-NyLw_LbCR-K3jb-8">
          <mxGeometry relative="1" as="geometry" />
        </mxCell>
        <mxCell id="mHrnO-NyLw_LbCR-K3jb-0" value="10ms待機" style="rounded=1;whiteSpace=wrap;html=1;" vertex="1" parent="WIyWlLk6GJQsqaUBKTNV-1">
          <mxGeometry x="160" y="340" width="120" height="60" as="geometry" />
        </mxCell>
        <mxCell id="mHrnO-NyLw_LbCR-K3jb-13" value="No" style="edgeStyle=orthogonalEdgeStyle;rounded=0;orthogonalLoop=1;jettySize=auto;html=1;entryX=0;entryY=0.5;entryDx=0;entryDy=0;" edge="1" parent="WIyWlLk6GJQsqaUBKTNV-1" source="mHrnO-NyLw_LbCR-K3jb-8" target="mHrnO-NyLw_LbCR-K3jb-15">
          <mxGeometry relative="1" as="geometry">
            <mxPoint x="220" y="600" as="targetPoint" />
          </mxGeometry>
        </mxCell>
        <mxCell id="mHrnO-NyLw_LbCR-K3jb-14" value="Yes" style="edgeStyle=orthogonalEdgeStyle;rounded=0;orthogonalLoop=1;jettySize=auto;html=1;exitX=1;exitY=0.5;exitDx=0;exitDy=0;entryX=0;entryY=0.5;entryDx=0;entryDy=0;" edge="1" parent="WIyWlLk6GJQsqaUBKTNV-1" source="mHrnO-NyLw_LbCR-K3jb-8" target="WIyWlLk6GJQsqaUBKTNV-7">
          <mxGeometry relative="1" as="geometry" />
        </mxCell>
        <mxCell id="mHrnO-NyLw_LbCR-K3jb-8" value="if (20000 &amp;lt; (uint)(key_state - (int)DAT_8f6903e8))" style="rhombus;whiteSpace=wrap;html=1;" vertex="1" parent="WIyWlLk6GJQsqaUBKTNV-1">
          <mxGeometry x="95" y="450" width="250" height="80" as="geometry" />
        </mxCell>
        <mxCell id="mHrnO-NyLw_LbCR-K3jb-17" value="No" style="edgeStyle=orthogonalEdgeStyle;rounded=0;orthogonalLoop=1;jettySize=auto;html=1;" edge="1" parent="WIyWlLk6GJQsqaUBKTNV-1" source="mHrnO-NyLw_LbCR-K3jb-15" target="mHrnO-NyLw_LbCR-K3jb-16">
          <mxGeometry relative="1" as="geometry" />
        </mxCell>
        <mxCell id="mHrnO-NyLw_LbCR-K3jb-25" value="Yes" style="edgeStyle=orthogonalEdgeStyle;rounded=0;orthogonalLoop=1;jettySize=auto;html=1;" edge="1" parent="WIyWlLk6GJQsqaUBKTNV-1" source="mHrnO-NyLw_LbCR-K3jb-15" target="mHrnO-NyLw_LbCR-K3jb-24">
          <mxGeometry relative="1" as="geometry" />
        </mxCell>
        <mxCell id="mHrnO-NyLw_LbCR-K3jb-15" value="KEY_PLAY_PAUSEは押されているか" style="rhombus;whiteSpace=wrap;html=1;direction=south;" vertex="1" parent="WIyWlLk6GJQsqaUBKTNV-1">
          <mxGeometry x="90" y="610" width="260" height="80" as="geometry" />
        </mxCell>
        <mxCell id="mHrnO-NyLw_LbCR-K3jb-19" value="No" style="edgeStyle=orthogonalEdgeStyle;rounded=0;orthogonalLoop=1;jettySize=auto;html=1;" edge="1" parent="WIyWlLk6GJQsqaUBKTNV-1" source="mHrnO-NyLw_LbCR-K3jb-16" target="mHrnO-NyLw_LbCR-K3jb-18">
          <mxGeometry relative="1" as="geometry" />
        </mxCell>
        <mxCell id="mHrnO-NyLw_LbCR-K3jb-21" value="Yes" style="edgeStyle=orthogonalEdgeStyle;rounded=0;orthogonalLoop=1;jettySize=auto;html=1;" edge="1" parent="WIyWlLk6GJQsqaUBKTNV-1" source="mHrnO-NyLw_LbCR-K3jb-16" target="mHrnO-NyLw_LbCR-K3jb-20">
          <mxGeometry relative="1" as="geometry" />
        </mxCell>
        <mxCell id="mHrnO-NyLw_LbCR-K3jb-16" value="KEY_VOLUMEUPが押されている&lt;br&gt;もしくはbVar1がtrue" style="rhombus;whiteSpace=wrap;html=1;" vertex="1" parent="WIyWlLk6GJQsqaUBKTNV-1">
          <mxGeometry x="70" y="760" width="300" height="80" as="geometry" />
        </mxCell>
        <mxCell id="mHrnO-NyLw_LbCR-K3jb-23" value="" style="edgeStyle=orthogonalEdgeStyle;rounded=0;orthogonalLoop=1;jettySize=auto;html=1;" edge="1" parent="WIyWlLk6GJQsqaUBKTNV-1" source="mHrnO-NyLw_LbCR-K3jb-18" target="mHrnO-NyLw_LbCR-K3jb-22">
          <mxGeometry relative="1" as="geometry" />
        </mxCell>
        <mxCell id="mHrnO-NyLw_LbCR-K3jb-18" value="&lt;div&gt;&amp;nbsp; &amp;nbsp; &amp;nbsp; &amp;nbsp; puVar11 = (undefined4 *)(uVar2 &amp;lt;&amp;lt; 2);&lt;/div&gt;&lt;div&gt;&amp;nbsp; &amp;nbsp; &amp;nbsp; &amp;nbsp; pcVar8 = (char *)0x2;&lt;/div&gt;&lt;div&gt;&amp;nbsp; &amp;nbsp; &amp;nbsp; &amp;nbsp; bVar1 = true;&lt;/div&gt;&lt;div&gt;&amp;nbsp; &amp;nbsp; &amp;nbsp; &amp;nbsp; uVar2 = uVar2 + 1 &amp;amp; 0xffff;&lt;/div&gt;&lt;div&gt;&amp;nbsp; &amp;nbsp; &amp;nbsp; &amp;nbsp; uVar9 = uVar9 | 2 &amp;lt;&amp;lt; ((uint)puVar11 &amp;amp; 0xff)&lt;/div&gt;" style="whiteSpace=wrap;html=1;" vertex="1" parent="WIyWlLk6GJQsqaUBKTNV-1">
          <mxGeometry x="85" y="920" width="270" height="90" as="geometry" />
        </mxCell>
        <mxCell id="mHrnO-NyLw_LbCR-K3jb-45" style="edgeStyle=orthogonalEdgeStyle;rounded=0;orthogonalLoop=1;jettySize=auto;html=1;entryX=0;entryY=0.5;entryDx=0;entryDy=0;" edge="1" parent="WIyWlLk6GJQsqaUBKTNV-1" source="mHrnO-NyLw_LbCR-K3jb-20" target="mHrnO-NyLw_LbCR-K3jb-28">
          <mxGeometry relative="1" as="geometry" />
        </mxCell>
        <mxCell id="mHrnO-NyLw_LbCR-K3jb-20" value="&amp;nbsp;LAB_8f62cee0に飛ぶ" style="whiteSpace=wrap;html=1;" vertex="1" parent="WIyWlLk6GJQsqaUBKTNV-1">
          <mxGeometry x="750" y="770" width="135" height="60" as="geometry" />
        </mxCell>
        <mxCell id="mHrnO-NyLw_LbCR-K3jb-62" value="" style="edgeStyle=orthogonalEdgeStyle;rounded=0;orthogonalLoop=1;jettySize=auto;html=1;" edge="1" parent="WIyWlLk6GJQsqaUBKTNV-1" source="mHrnO-NyLw_LbCR-K3jb-22" target="mHrnO-NyLw_LbCR-K3jb-61">
          <mxGeometry relative="1" as="geometry" />
        </mxCell>
        <mxCell id="mHrnO-NyLw_LbCR-K3jb-22" value="uVar13 = keys_get_state(0x119);" style="whiteSpace=wrap;html=1;" vertex="1" parent="WIyWlLk6GJQsqaUBKTNV-1">
          <mxGeometry x="85" y="1090" width="270" height="30" as="geometry" />
        </mxCell>
        <mxCell id="mHrnO-NyLw_LbCR-K3jb-27" value="Yes" style="edgeStyle=orthogonalEdgeStyle;rounded=0;orthogonalLoop=1;jettySize=auto;html=1;" edge="1" parent="WIyWlLk6GJQsqaUBKTNV-1" source="mHrnO-NyLw_LbCR-K3jb-24" target="mHrnO-NyLw_LbCR-K3jb-26">
          <mxGeometry relative="1" as="geometry" />
        </mxCell>
        <mxCell id="mHrnO-NyLw_LbCR-K3jb-55" value="No" style="edgeStyle=orthogonalEdgeStyle;rounded=0;orthogonalLoop=1;jettySize=auto;html=1;" edge="1" parent="WIyWlLk6GJQsqaUBKTNV-1" source="mHrnO-NyLw_LbCR-K3jb-24" target="mHrnO-NyLw_LbCR-K3jb-54">
          <mxGeometry relative="1" as="geometry">
            <Array as="points">
              <mxPoint x="520" y="490" />
            </Array>
          </mxGeometry>
        </mxCell>
        <mxCell id="mHrnO-NyLw_LbCR-K3jb-24" value="bVar1はtrueか" style="rhombus;whiteSpace=wrap;html=1;direction=south;" vertex="1" parent="WIyWlLk6GJQsqaUBKTNV-1">
          <mxGeometry x="430" y="610" width="170" height="80" as="geometry" />
        </mxCell>
        <mxCell id="mHrnO-NyLw_LbCR-K3jb-29" value="" style="edgeStyle=orthogonalEdgeStyle;rounded=0;orthogonalLoop=1;jettySize=auto;html=1;" edge="1" parent="WIyWlLk6GJQsqaUBKTNV-1" source="mHrnO-NyLw_LbCR-K3jb-26" target="mHrnO-NyLw_LbCR-K3jb-28">
          <mxGeometry relative="1" as="geometry" />
        </mxCell>
        <mxCell id="mHrnO-NyLw_LbCR-K3jb-26" value="KEY_VOLUMEUPの状態を取得&lt;br&gt;（変数への代入なし）" style="whiteSpace=wrap;html=1;" vertex="1" parent="WIyWlLk6GJQsqaUBKTNV-1">
          <mxGeometry x="680" y="620" width="195" height="60" as="geometry" />
        </mxCell>
        <mxCell id="mHrnO-NyLw_LbCR-K3jb-31" value="Yes&lt;br&gt;" style="edgeStyle=orthogonalEdgeStyle;rounded=0;orthogonalLoop=1;jettySize=auto;html=1;" edge="1" parent="WIyWlLk6GJQsqaUBKTNV-1" source="mHrnO-NyLw_LbCR-K3jb-28" target="mHrnO-NyLw_LbCR-K3jb-30">
          <mxGeometry relative="1" as="geometry" />
        </mxCell>
        <mxCell id="mHrnO-NyLw_LbCR-K3jb-51" style="edgeStyle=orthogonalEdgeStyle;rounded=0;orthogonalLoop=1;jettySize=auto;html=1;entryX=0.5;entryY=0;entryDx=0;entryDy=0;" edge="1" parent="WIyWlLk6GJQsqaUBKTNV-1" source="mHrnO-NyLw_LbCR-K3jb-28" target="mHrnO-NyLw_LbCR-K3jb-40">
          <mxGeometry relative="1" as="geometry" />
        </mxCell>
        <mxCell id="mHrnO-NyLw_LbCR-K3jb-28" value="KEY_VOLUMEDOWN が押されているか" style="rhombus;whiteSpace=wrap;html=1;" vertex="1" parent="WIyWlLk6GJQsqaUBKTNV-1">
          <mxGeometry x="930" y="610" width="360" height="80" as="geometry" />
        </mxCell>
        <mxCell id="mHrnO-NyLw_LbCR-K3jb-33" value="Yes" style="edgeStyle=orthogonalEdgeStyle;rounded=0;orthogonalLoop=1;jettySize=auto;html=1;" edge="1" parent="WIyWlLk6GJQsqaUBKTNV-1" source="mHrnO-NyLw_LbCR-K3jb-30" target="mHrnO-NyLw_LbCR-K3jb-32">
          <mxGeometry relative="1" as="geometry" />
        </mxCell>
        <mxCell id="mHrnO-NyLw_LbCR-K3jb-35" value="No" style="edgeStyle=orthogonalEdgeStyle;rounded=0;orthogonalLoop=1;jettySize=auto;html=1;" edge="1" parent="WIyWlLk6GJQsqaUBKTNV-1" source="mHrnO-NyLw_LbCR-K3jb-30" target="mHrnO-NyLw_LbCR-K3jb-34">
          <mxGeometry relative="1" as="geometry" />
        </mxCell>
        <mxCell id="mHrnO-NyLw_LbCR-K3jb-30" value="bVar1はtrueか" style="rhombus;whiteSpace=wrap;html=1;" vertex="1" parent="WIyWlLk6GJQsqaUBKTNV-1">
          <mxGeometry x="1350" y="610" width="170" height="80" as="geometry" />
        </mxCell>
        <mxCell id="mHrnO-NyLw_LbCR-K3jb-32" value="bVar1=true" style="whiteSpace=wrap;html=1;" vertex="1" parent="WIyWlLk6GJQsqaUBKTNV-1">
          <mxGeometry x="1570" y="620" width="120" height="60" as="geometry" />
        </mxCell>
        <mxCell id="mHrnO-NyLw_LbCR-K3jb-37" value="" style="edgeStyle=orthogonalEdgeStyle;rounded=0;orthogonalLoop=1;jettySize=auto;html=1;" edge="1" parent="WIyWlLk6GJQsqaUBKTNV-1" source="mHrnO-NyLw_LbCR-K3jb-34" target="mHrnO-NyLw_LbCR-K3jb-36">
          <mxGeometry relative="1" as="geometry" />
        </mxCell>
        <mxCell id="mHrnO-NyLw_LbCR-K3jb-34" value="&lt;div&gt;puVar11 = (undefined4 *)(uVar2 &amp;lt;&amp;lt; 2);&lt;/div&gt;&lt;div&gt;pcVar8 = (char *)0x3;&lt;/div&gt;" style="whiteSpace=wrap;html=1;" vertex="1" parent="WIyWlLk6GJQsqaUBKTNV-1">
          <mxGeometry x="1305" y="770" width="260" height="60" as="geometry" />
        </mxCell>
        <mxCell id="mHrnO-NyLw_LbCR-K3jb-39" value="" style="edgeStyle=orthogonalEdgeStyle;rounded=0;orthogonalLoop=1;jettySize=auto;html=1;" edge="1" parent="WIyWlLk6GJQsqaUBKTNV-1" source="mHrnO-NyLw_LbCR-K3jb-36" target="mHrnO-NyLw_LbCR-K3jb-38">
          <mxGeometry relative="1" as="geometry" />
        </mxCell>
        <mxCell id="mHrnO-NyLw_LbCR-K3jb-36" value="&lt;div&gt;bVar1=true&lt;/div&gt;" style="whiteSpace=wrap;html=1;" vertex="1" parent="WIyWlLk6GJQsqaUBKTNV-1">
          <mxGeometry x="1380" y="870" width="110" height="60" as="geometry" />
        </mxCell>
        <mxCell id="mHrnO-NyLw_LbCR-K3jb-41" value="" style="edgeStyle=orthogonalEdgeStyle;rounded=0;orthogonalLoop=1;jettySize=auto;html=1;" edge="1" parent="WIyWlLk6GJQsqaUBKTNV-1" source="mHrnO-NyLw_LbCR-K3jb-38" target="mHrnO-NyLw_LbCR-K3jb-40">
          <mxGeometry relative="1" as="geometry" />
        </mxCell>
        <mxCell id="mHrnO-NyLw_LbCR-K3jb-38" value="uVar2 = uVar2 + 1 &amp; 0xffff;&#xa;              uVar9 = uVar9 | 3 &lt;&lt; ((uint)puVar11 &amp; 0xff);" style="whiteSpace=wrap;html=1;" vertex="1" parent="WIyWlLk6GJQsqaUBKTNV-1">
          <mxGeometry x="1290" y="980" width="290" height="60" as="geometry" />
        </mxCell>
        <mxCell id="mHrnO-NyLw_LbCR-K3jb-42" style="edgeStyle=orthogonalEdgeStyle;rounded=0;orthogonalLoop=1;jettySize=auto;html=1;exitX=0;exitY=0.5;exitDx=0;exitDy=0;entryX=1;entryY=0.5;entryDx=0;entryDy=0;" edge="1" parent="WIyWlLk6GJQsqaUBKTNV-1" source="mHrnO-NyLw_LbCR-K3jb-40" target="mHrnO-NyLw_LbCR-K3jb-22">
          <mxGeometry relative="1" as="geometry" />
        </mxCell>
        <mxCell id="mHrnO-NyLw_LbCR-K3jb-40" value="&amp;nbsp;LAB_8f62cf10に飛ぶ" style="whiteSpace=wrap;html=1;" vertex="1" parent="WIyWlLk6GJQsqaUBKTNV-1">
          <mxGeometry x="1050" y="1076" width="120" height="60" as="geometry" />
        </mxCell>
        <mxCell id="mHrnO-NyLw_LbCR-K3jb-57" value="" style="edgeStyle=orthogonalEdgeStyle;rounded=0;orthogonalLoop=1;jettySize=auto;html=1;" edge="1" parent="WIyWlLk6GJQsqaUBKTNV-1" source="mHrnO-NyLw_LbCR-K3jb-54" target="mHrnO-NyLw_LbCR-K3jb-56">
          <mxGeometry relative="1" as="geometry" />
        </mxCell>
        <mxCell id="mHrnO-NyLw_LbCR-K3jb-54" value="&lt;div&gt;&amp;nbsp; &amp;nbsp; &amp;nbsp; &amp;nbsp; puVar11 = (undefined4 *)(uVar2 + 1);&lt;/div&gt;" style="whiteSpace=wrap;html=1;" vertex="1" parent="WIyWlLk6GJQsqaUBKTNV-1">
          <mxGeometry x="800" y="474.5" width="225" height="30" as="geometry" />
        </mxCell>
        <mxCell id="mHrnO-NyLw_LbCR-K3jb-59" value="" style="edgeStyle=orthogonalEdgeStyle;rounded=0;orthogonalLoop=1;jettySize=auto;html=1;" edge="1" parent="WIyWlLk6GJQsqaUBKTNV-1" source="mHrnO-NyLw_LbCR-K3jb-56" target="mHrnO-NyLw_LbCR-K3jb-58">
          <mxGeometry relative="1" as="geometry" />
        </mxCell>
        <mxCell id="mHrnO-NyLw_LbCR-K3jb-56" value="&lt;span style=&quot;background-color: initial;&quot;&gt;bVar1 = true&lt;/span&gt;" style="whiteSpace=wrap;html=1;" vertex="1" parent="WIyWlLk6GJQsqaUBKTNV-1">
          <mxGeometry x="1220" y="477" width="110" height="25" as="geometry" />
        </mxCell>
        <mxCell id="mHrnO-NyLw_LbCR-K3jb-63" style="edgeStyle=elbowEdgeStyle;rounded=0;orthogonalLoop=1;jettySize=auto;html=1;entryX=1;entryY=0.5;entryDx=0;entryDy=0;" edge="1" parent="WIyWlLk6GJQsqaUBKTNV-1" source="mHrnO-NyLw_LbCR-K3jb-58" target="mHrnO-NyLw_LbCR-K3jb-61">
          <mxGeometry relative="1" as="geometry">
            <mxPoint x="1770" y="1950" as="targetPoint" />
            <Array as="points">
              <mxPoint x="1760" y="1170" />
            </Array>
          </mxGeometry>
        </mxCell>
        <mxCell id="mHrnO-NyLw_LbCR-K3jb-58" value="&lt;div style=&quot;border-color: var(--border-color);&quot;&gt;uVar9 = uVar9 | 1 &amp;lt;&amp;lt; ((uVar2 &amp;amp; 0x3f) &amp;lt;&amp;lt; 2);&lt;/div&gt;&lt;div style=&quot;border-color: var(--border-color);&quot;&gt;&amp;nbsp; &amp;nbsp; &amp;nbsp; &amp;nbsp; uVar2 = (uint)puVar11 &amp;amp; 0xffff;&lt;/div&gt;&lt;div style=&quot;border-color: var(--border-color);&quot;&gt;&amp;nbsp; &amp;nbsp; &amp;nbsp; &amp;nbsp; &amp;nbsp; &amp;nbsp; &amp;nbsp; &amp;nbsp; &amp;nbsp; &amp;nbsp; /* KEY_PLAY_PAUSE */&lt;/div&gt;&lt;div style=&quot;border-color: var(--border-color);&quot;&gt;&amp;nbsp; &amp;nbsp; &amp;nbsp; &amp;nbsp; uVar13 = keys_get_state(0x119);&lt;/div&gt;" style="whiteSpace=wrap;html=1;" vertex="1" parent="WIyWlLk6GJQsqaUBKTNV-1">
          <mxGeometry x="1430" y="419.75" width="305" height="139.5" as="geometry" />
        </mxCell>
        <mxCell id="mHrnO-NyLw_LbCR-K3jb-69" value="" style="edgeStyle=orthogonalEdgeStyle;rounded=0;orthogonalLoop=1;jettySize=auto;html=1;" edge="1" parent="WIyWlLk6GJQsqaUBKTNV-1" source="mHrnO-NyLw_LbCR-K3jb-61" target="mHrnO-NyLw_LbCR-K3jb-68">
          <mxGeometry relative="1" as="geometry" />
        </mxCell>
        <mxCell id="mHrnO-NyLw_LbCR-K3jb-61" value="uVar5 = (undefined4)((ulonglong)uVar13 &amp;gt;&amp;gt; 0x20);" style="whiteSpace=wrap;html=1;" vertex="1" parent="WIyWlLk6GJQsqaUBKTNV-1">
          <mxGeometry x="50" y="1200" width="340" height="60" as="geometry" />
        </mxCell>
        <mxCell id="mHrnO-NyLw_LbCR-K3jb-71" value="Yes" style="edgeStyle=orthogonalEdgeStyle;rounded=0;orthogonalLoop=1;jettySize=auto;html=1;" edge="1" parent="WIyWlLk6GJQsqaUBKTNV-1" source="mHrnO-NyLw_LbCR-K3jb-68" target="mHrnO-NyLw_LbCR-K3jb-70">
          <mxGeometry relative="1" as="geometry" />
        </mxCell>
        <mxCell id="mHrnO-NyLw_LbCR-K3jb-68" value="uVar13は0か" style="rhombus;whiteSpace=wrap;html=1;" vertex="1" parent="WIyWlLk6GJQsqaUBKTNV-1">
          <mxGeometry x="155" y="1330" width="130" height="80" as="geometry" />
        </mxCell>
        <mxCell id="mHrnO-NyLw_LbCR-K3jb-73" value="" style="edgeStyle=orthogonalEdgeStyle;rounded=0;orthogonalLoop=1;jettySize=auto;html=1;" edge="1" parent="WIyWlLk6GJQsqaUBKTNV-1" source="mHrnO-NyLw_LbCR-K3jb-70" target="mHrnO-NyLw_LbCR-K3jb-72">
          <mxGeometry relative="1" as="geometry" />
        </mxCell>
        <mxCell id="mHrnO-NyLw_LbCR-K3jb-70" value="&lt;div&gt;&lt;span style=&quot;background-color: initial;&quot;&gt;uVar13にKEY_VOLUMEUPが押されているか代入&lt;/span&gt;&lt;br&gt;&lt;/div&gt;" style="whiteSpace=wrap;html=1;" vertex="1" parent="WIyWlLk6GJQsqaUBKTNV-1">
          <mxGeometry x="390" y="1340" width="320" height="60" as="geometry" />
        </mxCell>
        <mxCell id="mHrnO-NyLw_LbCR-K3jb-75" value="" style="edgeStyle=orthogonalEdgeStyle;rounded=0;orthogonalLoop=1;jettySize=auto;html=1;" edge="1" parent="WIyWlLk6GJQsqaUBKTNV-1" source="mHrnO-NyLw_LbCR-K3jb-72" target="mHrnO-NyLw_LbCR-K3jb-74">
          <mxGeometry relative="1" as="geometry" />
        </mxCell>
        <mxCell id="mHrnO-NyLw_LbCR-K3jb-72" value="&lt;div&gt;uVar5 = (undefined4)((ulonglong)uVar13 &amp;gt;&amp;gt; 0x20);&lt;br&gt;&lt;/div&gt;" style="whiteSpace=wrap;html=1;" vertex="1" parent="WIyWlLk6GJQsqaUBKTNV-1">
          <mxGeometry x="790" y="1340" width="320" height="60" as="geometry" />
        </mxCell>
        <mxCell id="mHrnO-NyLw_LbCR-K3jb-77" value="Yes" style="edgeStyle=orthogonalEdgeStyle;rounded=0;orthogonalLoop=1;jettySize=auto;html=1;exitX=1;exitY=0.5;exitDx=0;exitDy=0;entryX=0;entryY=0.5;entryDx=0;entryDy=0;" edge="1" parent="WIyWlLk6GJQsqaUBKTNV-1" source="mHrnO-NyLw_LbCR-K3jb-74" target="mHrnO-NyLw_LbCR-K3jb-76">
          <mxGeometry relative="1" as="geometry" />
        </mxCell>
        <mxCell id="mHrnO-NyLw_LbCR-K3jb-74" value="uVar13は0か" style="rhombus;whiteSpace=wrap;html=1;" vertex="1" parent="WIyWlLk6GJQsqaUBKTNV-1">
          <mxGeometry x="1270" y="1330" width="110" height="80" as="geometry" />
        </mxCell>
        <mxCell id="mHrnO-NyLw_LbCR-K3jb-79" style="edgeStyle=orthogonalEdgeStyle;rounded=0;orthogonalLoop=1;jettySize=auto;html=1;exitX=1;exitY=0.5;exitDx=0;exitDy=0;entryX=0;entryY=0.5;entryDx=0;entryDy=0;" edge="1" parent="WIyWlLk6GJQsqaUBKTNV-1" source="mHrnO-NyLw_LbCR-K3jb-76" target="mHrnO-NyLw_LbCR-K3jb-78">
          <mxGeometry relative="1" as="geometry" />
        </mxCell>
        <mxCell id="mHrnO-NyLw_LbCR-K3jb-76" value="&lt;div&gt;&lt;span style=&quot;background-color: initial;&quot;&gt;uVar13にKEY_VOLUMEDOWNが押されているか代入&lt;/span&gt;&lt;br&gt;&lt;/div&gt;" style="whiteSpace=wrap;html=1;" vertex="1" parent="WIyWlLk6GJQsqaUBKTNV-1">
          <mxGeometry x="1460" y="1340" width="320" height="60" as="geometry" />
        </mxCell>
        <mxCell id="mHrnO-NyLw_LbCR-K3jb-81" value="" style="edgeStyle=orthogonalEdgeStyle;rounded=0;orthogonalLoop=1;jettySize=auto;html=1;" edge="1" parent="WIyWlLk6GJQsqaUBKTNV-1" source="mHrnO-NyLw_LbCR-K3jb-78" target="mHrnO-NyLw_LbCR-K3jb-80">
          <mxGeometry relative="1" as="geometry" />
        </mxCell>
        <mxCell id="mHrnO-NyLw_LbCR-K3jb-78" value="&lt;div&gt;uVar5 = (undefined4)((ulonglong)uVar13 &amp;gt;&amp;gt; 0x20);&lt;br&gt;&lt;/div&gt;" style="whiteSpace=wrap;html=1;" vertex="1" parent="WIyWlLk6GJQsqaUBKTNV-1">
          <mxGeometry x="1820" y="1340" width="320" height="60" as="geometry" />
        </mxCell>
        <mxCell id="mHrnO-NyLw_LbCR-K3jb-83" value="Yes" style="edgeStyle=orthogonalEdgeStyle;rounded=0;orthogonalLoop=1;jettySize=auto;html=1;" edge="1" parent="WIyWlLk6GJQsqaUBKTNV-1" source="mHrnO-NyLw_LbCR-K3jb-80" target="mHrnO-NyLw_LbCR-K3jb-82">
          <mxGeometry relative="1" as="geometry" />
        </mxCell>
        <mxCell id="mHrnO-NyLw_LbCR-K3jb-80" value="uVar13は0か" style="rhombus;whiteSpace=wrap;html=1;" vertex="1" parent="WIyWlLk6GJQsqaUBKTNV-1">
          <mxGeometry x="2220" y="1330" width="120" height="80" as="geometry" />
        </mxCell>
        <mxCell id="mHrnO-NyLw_LbCR-K3jb-84" style="edgeStyle=orthogonalEdgeStyle;rounded=0;orthogonalLoop=1;jettySize=auto;html=1;entryX=0.5;entryY=0;entryDx=0;entryDy=0;" edge="1" parent="WIyWlLk6GJQsqaUBKTNV-1" source="mHrnO-NyLw_LbCR-K3jb-82" target="WIyWlLk6GJQsqaUBKTNV-3">
          <mxGeometry relative="1" as="geometry">
            <Array as="points">
              <mxPoint x="2680" y="1370" />
              <mxPoint x="2680" y="1450" />
              <mxPoint x="30" y="1450" />
              <mxPoint x="30" y="60" />
              <mxPoint x="220" y="60" />
            </Array>
          </mxGeometry>
        </mxCell>
        <mxCell id="mHrnO-NyLw_LbCR-K3jb-82" value="bVar1 = false;" style="whiteSpace=wrap;html=1;" vertex="1" parent="WIyWlLk6GJQsqaUBKTNV-1">
          <mxGeometry x="2420" y="1340" width="120" height="60" as="geometry" />
        </mxCell>
        <mxCell id="mHrnO-NyLw_LbCR-K3jb-89" value="No" style="edgeStyle=orthogonalEdgeStyle;rounded=0;orthogonalLoop=1;jettySize=auto;html=1;" edge="1" parent="WIyWlLk6GJQsqaUBKTNV-1" source="mHrnO-NyLw_LbCR-K3jb-68">
          <mxGeometry relative="1" as="geometry">
            <mxPoint x="220" y="80" as="targetPoint" />
            <Array as="points">
              <mxPoint x="30" y="1370" />
              <mxPoint x="30" y="60" />
              <mxPoint x="220" y="60" />
            </Array>
          </mxGeometry>
        </mxCell>
      </root>
    </mxGraphModel>
  </diagram>
</mxfile>
